<svg width="645" height="613" viewBox="0 0 645 613" fill="none" xmlns="http://www.w3.org/2000/svg">
<path d="M310 0C376.274 0 430 51.4873 430 115C430 142.569 419.875 167.871 402.997 187.681L403 187.682L402.976 187.705C399.22 192.111 395.131 196.246 390.744 200.072L212.261 380.535C208.942 384.354 205.372 387.966 201.572 391.343L194 399L193.586 397.844C173.265 412.983 147.732 422 120 422C53.7258 422 0 370.513 0 307C0 243.487 53.7258 192 120 192L194 190.5L190.626 126.82C190.212 122.934 190 118.991 190 115C190 51.4873 243.726 0 310 0ZM318 41C277.131 41 244 74.3548 244 115.5V188.5L316.6 186.791C316.735 186.792 316.871 186.794 317.007 186.794C324.134 187.397 330.759 187.205 336.881 186.314L341 186.218L340.444 185.708C374.627 178.994 392 149.576 392 115.5C392 74.3548 358.869 41 318 41Z" fill="#D0F803"/>
<path d="M335 613C268.726 613 215 561.513 215 498C215 470.431 225.125 445.129 242.003 425.319L242 425.318L242.024 425.295C245.78 420.889 249.869 416.754 254.256 412.928L432.739 232.465C436.058 228.646 439.628 225.034 443.428 221.657L451 214L451.414 215.156C471.735 200.017 497.268 191 525 191C591.274 191 645 242.487 645 306C645 369.513 591.274 421 525 421L451 422.5L454.374 486.18C454.788 490.066 455 494.009 455 498C455 561.513 401.274 613 335 613ZM327 572C367.869 572 401 538.645 401 497.5V424.5L328.4 426.209C328.265 426.208 328.129 426.206 327.993 426.206C320.866 425.603 314.241 425.795 308.119 426.686L304 426.782L304.556 427.292C270.373 434.006 253 463.424 253 497.5C253 538.645 286.131 572 327 572Z" fill="#5B27A5"/>
</svg>
